<svg width="148" height="33" viewBox="0 0 148 33" fill="none" xmlns="http://www.w3.org/2000/svg">
<path d="M9.80276 4.62973L15.8363 6.99069C19.3163 8.35243 21.0563 9.03329 20.9986 10.1133C20.9409 11.1934 19.125 11.6886 15.4932 12.6791C14.4119 12.974 13.8712 13.1215 13.4963 13.4963C13.1214 13.8712 12.974 14.4119 12.679 15.4933C11.6886 19.125 11.1933 20.9409 10.1133 20.9986C9.03329 21.0563 8.35243 19.3163 6.99069 15.8363L4.62973 9.80276C3.20405 6.15934 2.49121 4.33764 3.41442 3.41442C4.33764 2.49121 6.15935 3.20405 9.80276 4.62973Z" fill="white" stroke="black" stroke-width="1.5" stroke-linejoin="round"/>
<rect x="29" width="118.525" height="32.3529" rx="16.1765" fill="#05222C"/>
<rect x="32" y="3" width="27.5247" height="26.3529" rx="13.1765" fill="#00BFFF"/>
<path d="M46.1469 6.61225C48.0917 6.53983 50.0062 6.83842 51.0852 8.66787C51.3821 9.30586 51.8382 9.60117 52.1673 9.81419C52.2852 9.89057 52.3869 9.95638 52.459 10.0236C52.585 10.1446 52.9563 10.3453 53.3542 10.5603C53.8698 10.839 54.4303 11.1419 54.5604 11.3272C55.6519 12.8606 55.7995 13.7685 55.7561 15.6053C55.3982 17.3729 53.9548 21.5594 51.0441 24.1648C49.2769 25.1447 47.7624 25.8853 45.7487 25.7306C45.6932 25.7269 45.6375 25.7233 45.5815 25.7196C45.1866 25.6938 44.7812 25.6674 44.3959 25.6009C44.0635 25.5512 43.7401 25.4689 43.4164 25.3864C43.2293 25.3388 43.0421 25.2911 42.8529 25.2497C42.7415 25.2253 42.6317 25.2015 42.5233 25.178C40.8135 24.8072 39.4665 24.5152 38.0762 23.2667C37.8162 23.0332 37.6166 22.7593 37.4129 22.4798C37.3904 22.449 37.3679 22.418 37.3452 22.3871C36.4952 21.2269 35.8566 19.9453 35.7768 18.4839C35.7433 17.8699 35.7691 17.2174 35.8595 16.6086C35.8868 16.4245 35.9236 16.2417 35.9603 16.0591C35.9873 15.9246 36.0143 15.7902 36.0376 15.6552C36.0667 15.4864 36.0963 15.3175 36.1259 15.1485C36.2464 14.4611 36.3672 13.7722 36.4555 13.0808C36.51 12.6537 36.5424 12.2271 36.575 11.7988C36.5808 11.7226 36.5866 11.6463 36.5925 11.57C36.5965 11.5191 36.6002 11.4681 36.604 11.4171C36.6292 11.0744 36.6545 10.7301 36.7429 10.3973C36.8799 9.88133 37.1397 9.36398 37.4979 8.96622C39.2984 6.96725 43.16 6.76711 45.8731 6.62652C45.9657 6.62171 46.0571 6.61699 46.1469 6.61225ZM46.614 9.0761C44.715 7.88695 42.3907 6.93999 40.4964 8.13661C37.7099 9.89688 36.4263 12.7405 37.4235 16.4619C38.2154 19.4173 39.5823 21.5936 41.1079 23.2363C43.5097 25.8226 47.7515 24.4093 50.2416 21.908C52.8545 19.2834 55.3782 17.2248 54.5209 14.0253C53.4273 9.94359 50.5415 11.5355 46.614 9.0761Z" fill="#05222C"/>
<path d="M68.9706 21.6768V11.5968H70.6576V21.6768H68.9706ZM75.6734 21.8868C74.7401 21.8868 73.9817 21.6768 73.3984 21.2568C72.8151 20.8368 72.4604 20.2464 72.3344 19.4858L74.0564 19.2198C74.1451 19.5931 74.3411 19.8871 74.6444 20.1018C74.9477 20.3164 75.3304 20.4238 75.7924 20.4238C76.1984 20.4238 76.5111 20.3444 76.7304 20.1858C76.9544 20.0224 77.0664 19.8008 77.0664 19.5208C77.0664 19.3481 77.0244 19.2104 76.9404 19.1078C76.8611 19.0004 76.6837 18.8978 76.4084 18.7998C76.1331 18.7018 75.7107 18.5781 75.1414 18.4288C74.5067 18.2608 74.0027 18.0811 73.6294 17.8898C73.2561 17.6938 72.9877 17.4628 72.8244 17.1968C72.6611 16.9308 72.5794 16.6088 72.5794 16.2308C72.5794 15.7594 72.7031 15.3488 72.9504 14.9988C73.1977 14.6488 73.5431 14.3804 73.9864 14.1938C74.4297 14.0024 74.9524 13.9068 75.5544 13.9068C76.1424 13.9068 76.6627 13.9978 77.1154 14.1798C77.5727 14.3618 77.9414 14.6208 78.2214 14.9568C78.5014 15.2928 78.6741 15.6871 78.7394 16.1398L77.0174 16.4478C76.9754 16.1258 76.8284 15.8714 76.5764 15.6848C76.3291 15.4981 75.9977 15.3931 75.5824 15.3698C75.1857 15.3464 74.8661 15.4071 74.6234 15.5518C74.3807 15.6918 74.2594 15.8901 74.2594 16.1468C74.2594 16.2914 74.3084 16.4151 74.4064 16.5178C74.5044 16.6204 74.7004 16.7231 74.9944 16.8258C75.2931 16.9284 75.7364 17.0544 76.3244 17.2038C76.9264 17.3578 77.4071 17.5351 77.7664 17.7358C78.1304 17.9318 78.3917 18.1674 78.5504 18.4428C78.7137 18.7181 78.7954 19.0518 78.7954 19.4438C78.7954 20.2044 78.5177 20.8018 77.9624 21.2358C77.4117 21.6698 76.6487 21.8868 75.6734 21.8868ZM80.4686 21.6768V11.3868H82.1556V21.6768H80.4686ZM86.3665 21.8868C85.8205 21.8868 85.3585 21.7841 84.9805 21.5788C84.6025 21.3688 84.3155 21.0911 84.1195 20.7458C83.9281 20.4004 83.8325 20.0201 83.8325 19.6048C83.8325 19.2408 83.8931 18.9141 84.0145 18.6248C84.1358 18.3308 84.3225 18.0788 84.5745 17.8688C84.8265 17.6541 85.1531 17.4791 85.5545 17.3438C85.8578 17.2458 86.2125 17.1571 86.6185 17.0778C87.0291 16.9984 87.4725 16.9261 87.9485 16.8608C88.4291 16.7908 88.9308 16.7161 89.4535 16.6368L88.8515 16.9798C88.8561 16.4571 88.7395 16.0721 88.5015 15.8248C88.2635 15.5774 87.8621 15.4538 87.2975 15.4538C86.9568 15.4538 86.6278 15.5331 86.3105 15.6918C85.9931 15.8504 85.7715 16.1234 85.6455 16.5108L84.1055 16.0278C84.2921 15.3884 84.6468 14.8751 85.1695 14.4878C85.6968 14.1004 86.4061 13.9068 87.2975 13.9068C87.9695 13.9068 88.5598 14.0164 89.0685 14.2358C89.5818 14.4551 89.9621 14.8144 90.2095 15.3138C90.3448 15.5798 90.4265 15.8528 90.4545 16.1328C90.4825 16.4081 90.4965 16.7091 90.4965 17.0358V21.6768H89.0195V20.0388L89.2645 20.3048C88.9238 20.8508 88.5248 21.2521 88.0675 21.5088C87.6148 21.7608 87.0478 21.8868 86.3665 21.8868ZM86.7025 20.5428C87.0851 20.5428 87.4118 20.4751 87.6825 20.3398C87.9531 20.2044 88.1678 20.0388 88.3265 19.8428C88.4898 19.6468 88.5995 19.4624 88.6555 19.2898C88.7441 19.0751 88.7931 18.8301 88.8025 18.5548C88.8165 18.2748 88.8235 18.0484 88.8235 17.8758L89.3415 18.0298C88.8328 18.1091 88.3965 18.1791 88.0325 18.2398C87.6685 18.3004 87.3558 18.3588 87.0945 18.4148C86.8331 18.4661 86.6021 18.5244 86.4015 18.5898C86.2055 18.6598 86.0398 18.7414 85.9045 18.8348C85.7691 18.9281 85.6641 19.0354 85.5895 19.1568C85.5195 19.2781 85.4845 19.4204 85.4845 19.5838C85.4845 19.7704 85.5311 19.9361 85.6245 20.0808C85.7178 20.2208 85.8531 20.3328 86.0305 20.4168C86.2125 20.5008 86.4365 20.5428 86.7025 20.5428ZM94.4216 21.6768L97.5996 11.5968H100.071L103.249 21.6768H101.513L98.6286 12.6328H99.0066L96.1576 21.6768H94.4216ZM96.1926 19.4928V17.9178H101.485V19.4928H96.1926ZM107.692 25.2468C107.272 25.2468 106.869 25.1814 106.481 25.0508C106.099 24.9201 105.753 24.7311 105.445 24.4838C105.137 24.2411 104.885 23.9471 104.689 23.6018L106.243 22.8318C106.388 23.1071 106.591 23.3101 106.852 23.4408C107.118 23.5761 107.401 23.6438 107.699 23.6438C108.049 23.6438 108.362 23.5808 108.637 23.4548C108.913 23.3334 109.125 23.1514 109.274 22.9088C109.428 22.6708 109.501 22.3721 109.491 22.0128V19.8638H109.701V14.1168H111.178V22.0408C111.178 22.2321 111.169 22.4141 111.15 22.5868C111.136 22.7641 111.111 22.9368 111.073 23.1048C110.961 23.5948 110.747 23.9961 110.429 24.3088C110.112 24.6261 109.718 24.8618 109.246 25.0158C108.78 25.1698 108.262 25.2468 107.692 25.2468ZM107.545 21.8868C106.85 21.8868 106.243 21.7118 105.725 21.3618C105.207 21.0118 104.806 20.5358 104.521 19.9338C104.237 19.3318 104.094 18.6528 104.094 17.8968C104.094 17.1314 104.237 16.4501 104.521 15.8528C104.811 15.2508 105.219 14.7771 105.746 14.4318C106.274 14.0818 106.894 13.9068 107.608 13.9068C108.327 13.9068 108.929 14.0818 109.414 14.4318C109.904 14.7771 110.275 15.2508 110.527 15.8528C110.779 16.4548 110.905 17.1361 110.905 17.8968C110.905 18.6481 110.779 19.3271 110.527 19.9338C110.275 20.5358 109.9 21.0118 109.4 21.3618C108.901 21.7118 108.283 21.8868 107.545 21.8868ZM107.804 20.3748C108.257 20.3748 108.621 20.2721 108.896 20.0668C109.176 19.8568 109.379 19.5651 109.505 19.1918C109.636 18.8184 109.701 18.3868 109.701 17.8968C109.701 17.4021 109.636 16.9704 109.505 16.6018C109.379 16.2284 109.181 15.9391 108.91 15.7338C108.64 15.5238 108.29 15.4188 107.86 15.4188C107.408 15.4188 107.034 15.5308 106.74 15.7548C106.446 15.9741 106.229 16.2728 106.089 16.6508C105.949 17.0241 105.879 17.4394 105.879 17.8968C105.879 18.3588 105.947 18.7788 106.082 19.1568C106.222 19.5301 106.435 19.8264 106.719 20.0458C107.004 20.2651 107.366 20.3748 107.804 20.3748ZM116.578 21.8868C115.813 21.8868 115.141 21.7211 114.562 21.3898C113.983 21.0584 113.531 20.5988 113.204 20.0108C112.882 19.4228 112.721 18.7461 112.721 17.9808C112.721 17.1548 112.88 16.4384 113.197 15.8318C113.514 15.2204 113.955 14.7468 114.52 14.4108C115.085 14.0748 115.738 13.9068 116.48 13.9068C117.264 13.9068 117.929 14.0911 118.475 14.4598C119.026 14.8238 119.434 15.3394 119.7 16.0068C119.966 16.6741 120.066 17.4604 120.001 18.3658H118.328V17.7498C118.323 16.9284 118.179 16.3288 117.894 15.9508C117.609 15.5728 117.161 15.3838 116.55 15.3838C115.859 15.3838 115.346 15.5984 115.01 16.0278C114.674 16.4524 114.506 17.0754 114.506 17.8968C114.506 18.6621 114.674 19.2548 115.01 19.6748C115.346 20.0948 115.836 20.3048 116.48 20.3048C116.895 20.3048 117.252 20.2138 117.551 20.0318C117.854 19.8451 118.088 19.5768 118.251 19.2268L119.917 19.7308C119.628 20.4121 119.18 20.9418 118.573 21.3198C117.971 21.6978 117.306 21.8868 116.578 21.8868ZM113.974 18.3658V17.0918H119.175V18.3658H113.974ZM126.587 21.6768V18.0368C126.587 17.7988 126.571 17.5351 126.538 17.2458C126.505 16.9564 126.428 16.6788 126.307 16.4128C126.19 16.1421 126.013 15.9204 125.775 15.7478C125.542 15.5751 125.224 15.4888 124.823 15.4888C124.608 15.4888 124.396 15.5238 124.186 15.5938C123.976 15.6638 123.785 15.7851 123.612 15.9578C123.444 16.1258 123.309 16.3591 123.206 16.6578C123.103 16.9518 123.052 17.3298 123.052 17.7918L122.051 17.3648C122.051 16.7208 122.175 16.1374 122.422 15.6148C122.674 15.0921 123.043 14.6768 123.528 14.3688C124.013 14.0561 124.611 13.8998 125.32 13.8998C125.88 13.8998 126.342 13.9931 126.706 14.1798C127.07 14.3664 127.359 14.6044 127.574 14.8938C127.789 15.1831 127.947 15.4911 128.05 15.8178C128.153 16.1444 128.218 16.4548 128.246 16.7488C128.279 17.0381 128.295 17.2738 128.295 17.4558V21.6768H126.587ZM121.344 21.6768V14.1168H122.849V16.4618H123.052V21.6768H121.344ZM134.553 21.6768C134.053 21.7701 133.563 21.8098 133.083 21.7958C132.607 21.7864 132.18 21.7001 131.802 21.5368C131.424 21.3688 131.137 21.1051 130.941 20.7458C130.768 20.4191 130.677 20.0854 130.668 19.7448C130.658 19.4041 130.654 19.0191 130.654 18.5898V12.0168H132.334V18.4918C132.334 18.7951 132.336 19.0611 132.341 19.2898C132.35 19.5184 132.399 19.7051 132.488 19.8498C132.656 20.1298 132.924 20.2861 133.293 20.3188C133.661 20.3514 134.081 20.3328 134.553 20.2628V21.6768ZM129.282 15.4398V14.1168H134.553V15.4398H129.282Z" fill="#F8F8F8"/>
</svg>
